# xmcd
#
# Track frame offsets: 
#        150
#        19689
#        39851
#        50663
#        68133
#        89964
#        106098
#        123807
#        138112
#        150752
#        170414
#        180152
#
# Disc length: 2655 seconds
#
# Revision: 0
# Processed by: cddbd v1.5.2PL0 Copyright (c) Steve Scherf et al.
# Submitted via: ExactAudioCopy v0.99pb5
#
DISCID=880a5d0c
DTITLE=COLE - Bohemian Suicide
DYEAR=2010
DGENRE=Blues
TTITLE0=Bohemian Suicide
TTITLE1=Rusty Prayers
TTITLE2=As Long As You're Around
TTITLE3=New Jerusalem
TTITLE4=Bad Day For Flowers
TTITLE5=Miss Umbrella
TTITLE6=We Wasted The Days
TTITLE7=Two Sisters
TTITLE8=A Young Mans Rite Of Passage
TTITLE9=Bitter Medicine
TTITLE10=Some People
TTITLE11=Enemies and Friends
EXTD=
EXTT0=
EXTT1=
EXTT2=
EXTT3=
EXTT4=
EXTT5=
EXTT6=
EXTT7=
EXTT8=
EXTT9=
EXTT10=
EXTT11=
PLAYORDER=
